<svg width="15" height="15" viewBox="0 0 15 15" fill="none" xmlns="http://www.w3.org/2000/svg">
<path d="M1.97593 14.3723C1.59705 14.3723 1.27637 14.241 1.01387 13.9785C0.751367 13.716 0.620117 13.3954 0.620117 13.0165V2.97811C0.620117 2.59924 0.751367 2.27855 1.01387 2.01605C1.27637 1.75355 1.59705 1.6223 1.97593 1.6223H8.46774L7.34274 2.7473H1.97593C1.91818 2.7473 1.8653 2.77136 1.8173 2.81949C1.76918 2.86749 1.74512 2.92036 1.74512 2.97811V13.0165C1.74512 13.0742 1.76918 13.1271 1.8173 13.1751C1.8653 13.2232 1.91818 13.2473 1.97593 13.2473H12.0143C12.0721 13.2473 12.1249 13.2232 12.1729 13.1751C12.2211 13.1271 12.2451 13.0742 12.2451 13.0165V7.60205L13.3701 6.47705V13.0165C13.3701 13.3954 13.2389 13.716 12.9764 13.9785C12.7139 14.241 12.3932 14.3723 12.0143 14.3723H1.97593ZM5.12012 9.8723V7.29774L11.9149 0.503114C12.0312 0.386739 12.1591 0.301863 12.2986 0.248488C12.4379 0.195113 12.5797 0.168427 12.724 0.168427C12.8711 0.168427 13.0124 0.195113 13.1479 0.248488C13.2836 0.301863 13.4071 0.384301 13.5186 0.495801L14.4604 1.4348C14.5691 1.55118 14.6525 1.67955 14.7107 1.81993C14.7689 1.9603 14.7979 2.10261 14.7979 2.24686C14.7979 2.39111 14.7732 2.53099 14.7237 2.66649C14.6742 2.80211 14.5912 2.92805 14.4749 3.0443L7.65849 9.8723H5.12012ZM6.24512 8.7473H7.17981L11.8542 4.07274L11.3869 3.60549L10.8865 3.1238L6.24512 7.76517V8.7473Z" fill="#666E7D"/>
</svg>
