<svg width="34" height="32" viewBox="0 0 34 32" fill="none" xmlns="http://www.w3.org/2000/svg">
<rect x="0.5" y="0.490356" width="33" height="31.0192" rx="3.5" fill="#2160EB"/>
<rect x="0.5" y="0.490356" width="33" height="31.0192" rx="3.5" stroke="#2160EB"/>
<rect x="25.5656" y="13.2409" width="5.05018" height="3.07719" rx="1.5386" transform="rotate(90 25.5656 13.2409)" stroke="white" stroke-width="0.868774"/>
<rect x="23.8616" y="20.4821" width="3.07719" height="3.07719" rx="1.5386" transform="rotate(90 23.8616 20.4821)" stroke="white" stroke-width="0.868774"/>
<rect x="23.8616" y="7.70123" width="3.07719" height="3.07719" rx="1.5386" transform="rotate(90 23.8616 7.70123)" stroke="white" stroke-width="0.868774"/>
<path d="M16.6245 12.0673V12.0673C18.5314 12.0673 20.0772 13.6131 20.0772 15.52V16.0132C20.0772 17.9201 18.5314 19.4659 16.6245 19.4659V19.4659" stroke="white" stroke-width="1.30316"/>
<path d="M16.6279 5.99036H17.2669C18.0903 5.99036 18.7578 6.65788 18.7578 7.4813V7.4813C18.7578 8.30473 18.0903 8.97225 17.2669 8.97225H16.6279" stroke="white" stroke-width="0.870354"/>
<path d="M16.63 23.0277H17.2689C18.0924 23.0277 18.7599 23.6952 18.7599 24.5187V24.5187C18.7599 25.3421 18.0924 26.0096 17.2689 26.0096H16.63" stroke="white" stroke-width="0.870354"/>
<rect x="8.30339" y="17.8864" width="3.52722" height="2.14922" rx="1.07461" transform="rotate(-90 8.30339 17.8864)" stroke="white" stroke-width="0.606782"/>
<rect x="9.49043" y="12.8276" width="2.14922" height="2.14922" rx="1.07461" transform="rotate(-90 9.49043 12.8276)" stroke="white" stroke-width="0.606782"/>
<rect x="9.49043" y="21.7526" width="2.14922" height="2.14922" rx="1.07461" transform="rotate(-90 9.49043 21.7526)" stroke="white" stroke-width="0.606782"/>
<path d="M14.5434 18.3383V18.3383C13.2116 18.3383 12.1319 17.2586 12.1319 15.9268V15.5823C12.1319 14.2504 13.2116 13.1708 14.5434 13.1708V13.1708" stroke="white" stroke-width="0.910173"/>
<path d="M14.5439 22.9493H14.0976C13.5225 22.9493 13.0563 22.4831 13.0563 21.908V21.908C13.0563 21.3329 13.5225 20.8667 14.0976 20.8667H14.5439" stroke="white" stroke-width="0.607885"/>
<path d="M14.5439 11.0485H14.0976C13.5225 11.0485 13.0563 10.5822 13.0563 10.0071V10.0071C13.0563 9.43202 13.5225 8.9658 14.0976 8.9658H14.5439" stroke="white" stroke-width="0.607885"/>
</svg>
