<svg width="16" height="16" viewBox="0 0 16 16" fill="none" xmlns="http://www.w3.org/2000/svg">
<path d="M14.2855 15.1479L9.0515 9.91369C8.63483 10.2577 8.15566 10.527 7.614 10.7214C7.07233 10.9158 6.51198 11.0131 5.93296 11.0131C4.50865 11.0131 3.30323 10.5199 2.31671 9.53369C1.33018 8.54744 0.836914 7.3423 0.836914 5.91828C0.836914 4.49439 1.33004 3.28883 2.31629 2.30161C3.30254 1.31453 4.50768 0.820984 5.93171 0.820984C7.35559 0.820984 8.56115 1.31425 9.54837 2.30078C10.5355 3.2873 11.029 4.49272 11.029 5.91703C11.029 6.51217 10.9291 7.08057 10.7294 7.62223C10.5296 8.1639 10.263 8.63501 9.92962 9.03557L15.1636 14.2695L14.2855 15.1479ZM5.93296 9.76328C7.00671 9.76328 7.91615 9.39064 8.66129 8.64536C9.40657 7.90022 9.77921 6.99078 9.77921 5.91703C9.77921 4.84328 9.40657 3.93383 8.66129 3.18869C7.91615 2.44341 7.00671 2.07078 5.93296 2.07078C4.85921 2.07078 3.94976 2.44341 3.20462 3.18869C2.45934 3.93383 2.08671 4.84328 2.08671 5.91703C2.08671 6.99078 2.45934 7.90022 3.20462 8.64536C3.94976 9.39064 4.85921 9.76328 5.93296 9.76328Z" fill="#777981"/>
</svg>
