<svg width="12" height="14" viewBox="0 0 12 14" fill="none" xmlns="http://www.w3.org/2000/svg">
<path d="M2.72989 13.3431C2.39022 13.3431 2.10005 13.2106 1.85938 12.9457C1.61882 12.6807 1.49854 12.3613 1.49854 11.9873V2.46806H0.817383V1.34306H3.88257V0.679688H7.96948V1.34306H11.0347V2.46806H10.3535V11.9873C10.3535 12.3661 10.2343 12.6868 9.99591 12.9493C9.75751 13.2118 9.46626 13.3431 9.12216 13.3431H2.72989ZM9.33179 2.46806H2.52026V11.9873C2.52026 12.0546 2.5399 12.1099 2.57918 12.1532C2.61846 12.1964 2.6687 12.2181 2.72989 12.2181H9.12216C9.17461 12.2181 9.22263 12.194 9.26623 12.1459C9.30993 12.0979 9.33179 12.045 9.33179 11.9873V2.46806ZM4.15775 10.7181H5.17931V3.96806H4.15775V10.7181ZM6.67274 10.7181H7.6943V3.96806H6.67274V10.7181Z" fill="#F94F4F"/>
</svg>
