<svg width="44" height="38" viewBox="0 0 44 38" fill="none" xmlns="http://www.w3.org/2000/svg">
<g filter="url(#filter0_dii_927_6521)">
<rect x="2" y="1" width="40" height="34" rx="4" fill="url(#paint0_linear_927_6521)" shape-rendering="crispEdges"/>
<mask id="mask0_927_6521" style="mask-type:alpha" maskUnits="userSpaceOnUse" x="10" y="6" width="24" height="24">
<rect x="10" y="6" width="24" height="24" fill="#D9D9D9"/>
</mask>
<g mask="url(#mask0_927_6521)">
<path d="M21.25 21.7885V13.3885L18.7848 15.8538L17.7308 14.7693L22 10.5L26.2693 14.7693L25.2153 15.8538L22.75 13.3885V21.7885H21.25ZM16.3077 25.5C15.8026 25.5 15.375 25.325 15.025 24.975C14.675 24.625 14.5 24.1974 14.5 23.6923V20.9808H16V23.6923C16 23.7692 16.0321 23.8398 16.0963 23.9038C16.1603 23.9679 16.2307 24 16.3077 24H27.6923C27.7692 24 27.8398 23.9679 27.9038 23.9038C27.9679 23.8398 28 23.7692 28 23.6923V20.9808H29.5V23.6923C29.5 24.1974 29.325 24.625 28.975 24.975C28.625 25.325 28.1974 25.5 27.6923 25.5H16.3077Z" fill="white"/>
</g>
</g>
<defs>
<filter id="filter0_dii_927_6521" x="0" y="0" width="44" height="38" filterUnits="userSpaceOnUse" color-interpolation-filters="sRGB">
<feFlood flood-opacity="0" result="BackgroundImageFix"/>
<feColorMatrix in="SourceAlpha" type="matrix" values="0 0 0 0 0 0 0 0 0 0 0 0 0 0 0 0 0 0 127 0" result="hardAlpha"/>
<feOffset dy="1"/>
<feGaussianBlur stdDeviation="1"/>
<feComposite in2="hardAlpha" operator="out"/>
<feColorMatrix type="matrix" values="0 0 0 0 0.054902 0 0 0 0 0.0823529 0 0 0 0 0.141176 0 0 0 0.06 0"/>
<feBlend mode="normal" in2="BackgroundImageFix" result="effect1_dropShadow_927_6521"/>
<feBlend mode="normal" in="SourceGraphic" in2="effect1_dropShadow_927_6521" result="shape"/>
<feColorMatrix in="SourceAlpha" type="matrix" values="0 0 0 0 0 0 0 0 0 0 0 0 0 0 0 0 0 0 127 0" result="hardAlpha"/>
<feOffset dy="-1"/>
<feGaussianBlur stdDeviation="1"/>
<feComposite in2="hardAlpha" operator="arithmetic" k2="-1" k3="1"/>
<feColorMatrix type="matrix" values="0 0 0 0 0.109804 0 0 0 0 0.243137 0 0 0 0 0.686275 0 0 0 0.5 0"/>
<feBlend mode="normal" in2="shape" result="effect2_innerShadow_927_6521"/>
<feColorMatrix in="SourceAlpha" type="matrix" values="0 0 0 0 0 0 0 0 0 0 0 0 0 0 0 0 0 0 127 0" result="hardAlpha"/>
<feOffset/>
<feGaussianBlur stdDeviation="0.25"/>
<feComposite in2="hardAlpha" operator="arithmetic" k2="-1" k3="1"/>
<feColorMatrix type="matrix" values="0 0 0 0 1 0 0 0 0 1 0 0 0 0 1 0 0 0 0.44 0"/>
<feBlend mode="normal" in2="effect2_innerShadow_927_6521" result="effect3_innerShadow_927_6521"/>
</filter>
<linearGradient id="paint0_linear_927_6521" x1="22" y1="-53.5774" x2="22" y2="35" gradientUnits="userSpaceOnUse">
<stop offset="0.325075" stop-color="#6E9AF9"/>
<stop offset="1" stop-color="#2160EB"/>
</linearGradient>
</defs>
</svg>
